<svg width="4207" height="788" viewBox="0 0 4207 788" fill="none" xmlns="http://www.w3.org/2000/svg">
<path d="M250.667 2.66665C160.533 18.6666 90.5333 93.8667 81.4667 184.533C80.6667 192.667 80 225.2 80 258.267V317.333H40H0V379.333V441.333H40H80V610V778.667H154.667H229.333L229.733 484.933L230 191.333L233.067 180.4C238.933 158.533 250 142.8 264.933 135.2L272.667 131.333L341.733 130.933L410.667 130.533V65.3333V-2.02656e-05L337.733 0.133313C272.8 0.266646 263.067 0.533313 250.667 2.66665Z" fill="white"/>
<path d="M465.333 215.067C465.333 333.467 464.933 508.667 464.4 604.4L463.6 778.667H538.4H613.333V389.333V-2.02656e-05H539.333H465.333V215.067Z" fill="white"/>
<path d="M911.333 216C881.066 220.667 858.266 228 830 242C798.133 257.733 772.8 276.266 748 302.133C722.133 328.933 702 360.4 687.2 397.2C667.866 444.933 663.066 503.867 674 558.4C684.533 610.133 711.333 660.267 749.866 699.867C775.066 725.733 798.933 742.933 831.333 758.8C871.733 778.533 908.533 786.8 956 786.8C1003.33 786.933 1040.13 778.667 1080.67 758.8C1113.07 742.933 1136.93 725.6 1162 699.867C1185.07 676.133 1202.67 651.067 1216.27 622.667C1234 585.467 1242.13 551.6 1243.6 509.333C1245.2 459.867 1235.87 416.933 1214 373.333C1199.07 343.467 1185.07 323.867 1162 300.133C1115.47 252.4 1058 223.6 991.6 214.667C974.533 212.4 929.733 213.2 911.333 216ZM990.533 349.067C1057.07 371.867 1097.33 445.733 1085.87 523.867C1082.13 549.2 1069.6 580.4 1055.33 599.333C1040.93 618.533 1019.47 636.267 1000.67 644.667C975.066 656 940.4 656.667 914.8 646.267C892.666 637.333 871.333 620.533 856 599.867C814.4 544 811.733 463.2 849.466 405.333C863.733 383.467 882.8 366.533 905.733 355.333C924.533 346.267 935.466 344 958.666 344.4C976.4 344.8 979.066 345.2 990.533 349.067Z" fill="white"/>
<path d="M2369.33 214.267C2329.73 220.267 2303.2 229.733 2276.67 247.333C2270.8 251.333 2263.07 257.067 2259.47 260.267L2253.07 266L2280.67 314.667C2295.87 341.467 2308.4 363.467 2308.67 363.733C2308.8 364 2311.07 362.933 2313.6 361.333C2320.53 357.333 2340.53 350.8 2353.2 348.667C2367.87 346 2399.07 346.133 2413.87 348.667C2449.07 354.8 2470.27 371.867 2480.67 402.8C2489.47 428.667 2490.67 455.6 2490.67 642.933V778.667H2566.8H2642.93L2642.27 617.6C2641.87 514 2641.07 451.2 2640.13 441.333C2634.8 386.667 2627.2 354.133 2612.67 323.067C2582.93 260 2529.07 224.933 2447.2 215.333C2431.6 213.467 2378.93 212.8 2369.33 214.267Z" fill="white"/>
<path d="M2938.4 215.465C2866.93 225.865 2799.47 264.532 2754.4 321.065C2727.33 354.932 2705.47 400.932 2697.47 440.932C2693.2 461.865 2692 475.065 2692 500.666C2692 526.266 2693.2 539.466 2697.47 560.399C2703.33 589.199 2717.87 624.932 2735.07 652.932C2779.47 724.532 2855.47 773.466 2939.6 784.666C2958.27 787.199 2998.13 787.599 3015.33 785.332C3065.73 779.066 3112.27 760.399 3153.47 729.866C3169.33 718.132 3195.47 692.399 3207.73 676.399L3216.13 665.466L3211.73 663.599C3209.33 662.532 3179.87 649.599 3146.4 634.799C3112.93 620.132 3084.67 607.999 3083.73 607.999C3082.8 608.132 3079.6 611.199 3076.67 614.932C3057.87 638.799 3033.6 650.132 2994.67 653.199C2957.33 656.266 2928.8 647.466 2898.27 623.599C2868.4 600.266 2846.53 564.266 2839.47 526.666C2836.8 512.666 2836.8 485.465 2839.33 470.399C2849.47 412.932 2888.67 367.999 2943.47 351.065C2954.67 347.599 2956.8 347.465 2980.67 347.465C3004.53 347.465 3006.67 347.599 3017.87 351.065C3055.33 362.665 3087.2 390.665 3106.4 428.932C3109.87 435.599 3116 450.265 3116 451.599C3116 451.865 3068.53 452.132 3010.67 452.265L2905.33 452.665L2940.93 509.599L2976.67 566.666H3118.27H3259.87L3261.33 561.466C3262 558.666 3263.6 550.399 3264.67 543.199C3280.93 431.465 3231.47 321.732 3136.93 259.865C3100.8 236.265 3061.47 221.332 3019.73 215.332C3002.13 212.799 2956.13 212.932 2938.4 215.465Z" fill="white"/>
<path d="M3613.33 214.267C3602 215.467 3578.93 220.4 3567.6 224.133C3534.53 234.933 3504 255.733 3481.07 283.067L3474.67 290.8V256.133V221.333H3398.67H3322.67V500V778.667H3398.67H3474.67V623.067C3474.67 445.733 3473.73 460.8 3486.67 433.867C3505.73 394.4 3540.53 364.267 3580.53 352.8C3597.2 347.867 3606.4 346.667 3625.73 346.667C3652.13 346.667 3680 353.6 3699.73 365.067C3702.93 366.933 3706 367.867 3706.53 367.2C3707.07 366.533 3719.47 344.667 3734 318.667C3748.53 292.667 3764 265.467 3768.27 258.267C3772.53 250.933 3776 244.8 3776 244.533C3776 243.733 3759.33 236.267 3746 231.067C3730.13 224.933 3702.8 218 3684.27 215.467C3670.4 213.467 3627.2 212.8 3613.33 214.267Z" fill="white"/>
<path d="M3953.33 214.132C3951.47 214.399 3944 215.599 3936.67 216.799C3908.4 221.332 3876.67 233.599 3853.47 248.932C3839.6 258.132 3818.93 278.532 3810.53 291.332C3802.4 303.599 3794.53 319.599 3790.27 332.266C3777.07 371.599 3779.07 425.199 3794.8 456.399C3812.67 491.732 3848.4 520.532 3894.13 536.399C3913.6 543.199 3975.6 561.332 3979.2 561.332C3984.93 561.332 4026.53 576.532 4041.07 583.866C4054.8 590.932 4061.33 600.532 4061.33 613.599C4061.07 643.199 4033.07 656.799 3980.4 653.199C3926.67 649.466 3879.47 628.132 3839.87 589.599C3834.93 584.932 3830.27 581.332 3829.6 581.866C3827.87 582.932 3753.33 700.532 3753.33 702.132C3753.33 703.732 3777.73 720.666 3794.27 730.532C3864.13 771.999 3937.47 790.666 4014.53 786.532C4078.67 783.199 4125.2 765.466 4159.47 731.332C4193.2 697.732 4208.27 655.199 4206.27 599.466C4205.47 575.466 4202.67 563.466 4194.13 545.999C4180.8 519.199 4157.87 497.999 4122.67 480.132C4102.4 469.866 4041.07 446.799 4026.53 443.999C4005.33 439.999 3951.07 415.332 3938.4 403.999C3928.27 394.932 3925.6 388.266 3927.73 376.932C3929.47 367.466 3933.73 361.466 3943.2 355.066C3953.47 348.132 3957.87 347.332 3986.67 347.466C4008.13 347.466 4014.93 347.999 4025.73 350.399C4062.13 358.399 4092.4 373.332 4119.07 396.399C4123.33 399.999 4126.93 402.799 4127.2 402.532C4129.33 400.399 4194.67 279.599 4194.67 277.999C4194.67 273.466 4157.33 252.666 4127.47 240.666C4099.6 229.466 4071.73 221.866 4039.07 216.532C4026.53 214.532 3961.73 212.666 3953.33 214.132Z" fill="white"/>
<path d="M1233.33 221.999C1233.33 224.266 1365.6 714.132 1366.53 715.066C1367.07 715.599 1389.6 693.199 1416.67 665.199L1465.73 614.399L1427.2 417.866L1388.8 221.332H1311.07C1268.27 221.332 1233.33 221.599 1233.33 221.999Z" fill="white"/>
<path d="M1498.27 499.067C1467.73 651.733 1442.67 777.067 1442.67 777.6C1442.67 778.267 1468.67 778.667 1500.53 778.667C1554.53 778.667 1558.53 778.533 1559.2 776.267C1559.47 775.067 1576.27 701.467 1596.27 612.667C1616.27 524 1632.93 452.667 1633.2 454C1633.47 455.467 1649.47 528.933 1668.8 617.2C1688.13 705.467 1704 777.867 1704 778.133C1704 778.4 1744 778.667 1793.07 778.667H1882L1949.2 527.6C1986.27 389.6 2019.87 264.267 2024 248.933L2031.6 221.333H1954.4C1912 221.333 1877.33 221.467 1877.33 221.6C1877.2 221.867 1858.13 315.867 1834.8 430.533L1792.53 639.067L1750.67 430.133L1708.93 221.333H1631.47H1554L1498.27 499.067Z" fill="white"/>
<path d="M2076 500V778.667H2152H2228V500V221.333H2152H2076V500Z" fill="white"/>
<path d="M245.333 317.733C245.333 317.999 260.533 345.733 279.2 379.466L313.066 440.666L361.2 441.066L409.333 441.333V379.333V317.333H327.333C282.266 317.333 245.333 317.466 245.333 317.733Z" fill="white"/>
</svg>
